<svg width="72" height="72" viewBox="0 0 72 72" fill="none" xmlns="http://www.w3.org/2000/svg">
<g clip-path="url(#clip0_2_23)">
<mask id="mask0_2_23" style="mask-type:luminance" maskUnits="userSpaceOnUse" x="0" y="0" width="72" height="72">
<path d="M72 0H0V72H72V0Z" fill="white"/>
</mask>
<g mask="url(#mask0_2_23)">
<path d="M34.7348 44.8662C33.2745 41.3563 30.5461 38.525 27.0925 36.9359L2.59711 27.7714C1.80922 27.4831 1.13186 26.9545 0.66082 26.2603C0.189779 25.566 -0.0511161 24.7413 -0.0278047 23.9026C-0.00449339 23.064 0.281845 22.2539 0.790724 21.5869C1.2996 20.9199 2.00528 20.4297 2.80796 20.1857L66.8006 0.190233C67.4969 -0.0283753 68.2406 -0.0519511 68.9493 0.122066C69.6585 0.296082 70.3065 0.661037 70.8228 1.17731C71.3386 1.69357 71.7038 2.34142 71.8776 3.05049C72.0519 3.75956 72.0283 4.50276 71.8097 5.19938L51.8143 69.192C51.5679 69.9794 51.0844 70.6716 50.4296 71.1735C49.7748 71.6755 48.9809 71.9625 48.1566 71.9959C47.3322 72.0288 46.5177 71.8066 45.8247 71.3592C45.1316 70.9113 44.5939 70.2607 44.2851 69.4954C44.0623 68.9467 40.8788 60.7371 34.7348 44.8662Z" fill="#4374E5"/>
</g>
</g>
<defs>
<clipPath id="clip0_2_23">
<rect width="72" height="72" fill="white"/>
</clipPath>
</defs>
</svg>
